<?xml version="1.0" encoding="UTF-8"?>
<svg width="166px" height="101px" viewBox="0 0 166 101" version="1.1" xmlns="http://www.w3.org/2000/svg" xmlns:xlink="http://www.w3.org/1999/xlink">
    <title>Group 18</title>
    <g id="Page-1" stroke="none" stroke-width="1" fill="none" fill-rule="evenodd">
        <g id="Group-18" transform="translate(1.000000, 1.000000)">
            <g id="Group-16" transform="translate(25.000000, 0.000000)">
                <path d="M108.488326,14.7505701 C98.4100171,-0.434859788 77.9268874,-4.57040447 62.7404933,5.51452028 C52.4154868,12.370818 47.2058208,24.0446626 48.0982844,35.587911 L60.8394732,27.1281827 C62.1817966,22.5282962 65.0841175,18.3637302 69.3868082,15.5123809 C75.2712638,11.6017518 82.418229,11.0576012 88.5493819,13.4155872 C87.4972906,13.7565883 86.4669666,14.2499515 85.4946891,14.8956769 C79.704559,18.7410079 78.1227941,26.5622661 81.9683693,32.359284 C85.8139444,38.1563019 93.642955,39.730711 99.4330852,35.88538 C100.405363,35.2396546 101.254292,34.4850991 101.979872,33.6434794 C101.776709,40.2095635 98.5115983,46.5870088 92.6126311,50.4976378 C87.9181271,53.6174347 82.4254848,54.5896505 77.281121,53.6609668 L64.9607688,61.8377367 C75.4018682,67.6347546 88.6219399,67.5476905 99.2516902,60.4954985 C114.438084,50.4105737 118.566636,29.9287446 108.488326,14.7505701" id="Fill-697" stroke="#000000" fill="#F5F5F5"></path>
                <path d="M53.1596741,38.8758579 C51.8174056,43.4759194 48.9152033,47.6406439 44.6199441,50.4921016 C38.7284735,54.4028795 31.5818006,54.9470508 25.4508984,52.5889751 C26.5029467,52.2479611 27.5332285,51.7545791 28.5054662,51.1088291 C34.3026152,47.2633518 35.8770599,39.441796 32.0316419,33.6445576 C28.1789685,27.8473191 20.364789,26.2655945 14.56764,30.1183274 C13.5954023,30.7640774 12.7465082,31.5186616 12.0137021,32.3603133 C12.2241118,25.7939794 15.4963448,19.4162915 21.3878153,15.5055136 C26.0821274,12.3855981 31.5745451,11.4133453 36.7186985,12.3420644 L49.0312914,4.16498334 C38.5978744,-1.63225512 25.3783433,-1.55244332 14.7490277,5.50727259 C-0.429489935,15.592581 -4.57238361,36.0751895 5.51276911,51.2539415 C15.5979218,66.4326935 36.0729585,70.5683955 51.2587316,60.4903427 C61.583316,53.6265284 66.8000245,41.9594953 65.9003418,30.4158078 L53.1596741,38.8758579 Z" id="Fill-698" fill="#390099"></path>
            </g>
            <g id="Group-17" transform="translate(0.000000, 71.000000)" font-family="Poppins-Bold, Poppins" font-size="20" font-weight="bold" letter-spacing="0.363636364">
                <text id="Career" stroke="#000000" fill="#F5F5F5">
                    <tspan x="0.479090909" y="21">Career</tspan>
                </text>
                <text id="Connect" fill="#390099">
                    <tspan x="74.2972727" y="21">Connect</tspan>
                </text>
            </g>
        </g>
    </g>
</svg>